# xmcd
#
# Track frame offsets:
#	150
#	17850
#	36050
#	57207
#	73660
#	90676
#	116978
#	135368
#	151704
#	170825
#	189515
#
# Disc length: 2763 seconds
#
# Revision: 2
# Processed by: cddbd v1.5.2PL0 Copyright (c) Steve Scherf et al.
# Submitted via: dBpowerAMP V4.0
#
DISCID=910ac90b
DTITLE=Donna Summer - The Best of Donna Summer, Vol 2
DYEAR=2006
DGENRE=Dance
TTITLE0=Could It Be Magic
TTITLE1=Spring Affair
TTITLE2=I Love You
TTITLE3=Heaven Knows
TTITLE4=The Wanderer
TTITLE5=State Of Independence
TTITLE6=There Goes My Baby
TTITLE7=This Time I Know It's For Real
TTITLE8=Melody Of Love (Wanna Be Loved)
TTITLE9=I Will Go With You (Con Te Partiro)
TTITLE10=I Got Your Love
EXTD=
EXTT0=
EXTT1=
EXTT2=
EXTT3=
EXTT4=
EXTT5=
EXTT6=
EXTT7=
EXTT8=
EXTT9=
EXTT10=
PLAYORDER=
